<svg width="882" height="148" viewBox="0 0 882 148" fill="none" xmlns="http://www.w3.org/2000/svg">
<path d="M461.75 147.35H407.66L455.23 0H509.33L461.76 147.34L461.75 147.35Z" fill="white"/>
<path d="M156.17 147.35L203.74 0H258.26L223.74 106.93H284.57L271.52 147.35H156.17Z" fill="white"/>
<path d="M57.61 92.41C56.2 96.48 56.41 99.78 58.24 102.3C60.06 104.83 63.15 106.09 67.5 106.09L85.39 106.3C89.6 106.3 93.42 105.04 96.86 102.51C100.29 99.98 102.72 96.69 104.12 92.62L134.23 0H188.33L155.07 103.14C152.97 109.74 149.91 115.77 145.91 121.24C141.91 126.71 137.25 131.38 131.91 135.24C126.57 139.1 120.72 142.08 114.33 144.19C107.94 146.29 101.24 147.35 94.23 147.35H42.66C34.1 147.35 26.77 146.05 20.66 143.46C14.55 140.86 9.74001 137.18 6.24001 132.41C2.73001 127.64 0.700007 121.92 0.140007 115.25C-0.419993 108.59 0.630007 101.18 3.30001 93.04L33.4 0H87.5L57.61 92.4V92.41Z" fill="white"/>
<path d="M879.58 17.58C877.75 12.46 874.35 8.25 869.37 4.95C864.38 1.65 857.33 0 848.21 0H761.49C760.76 0 760.03 0.02 759.31 0.07C753.79 0.38 748.56 1.9 743.59 4.62C737.98 7.71 733.07 11.67 728.86 16.52C724.65 21.36 721.32 26.66 718.86 32.42C716.4 38.17 715.17 43.75 715.17 49.15C715.17 54.55 716.61 59.43 719.49 63.78C722.37 68.12 727.03 71.21 733.49 73.04C727.17 74.16 721.41 76.79 716.23 80.93C711.03 85.07 706.75 89.92 703.39 95.45C700.02 101 697.74 106.83 696.55 112.92C695.36 119.03 695.67 124.61 697.51 129.65C699.33 134.7 702.76 138.91 707.82 142.29C711.17 144.52 715.4 146.01 720.48 146.76C723.06 147.15 725.85 147.34 728.87 147.34H815.59C821.91 147.34 827.88 145.8 833.49 142.71C839.1 139.63 844.01 135.67 848.22 130.82C852.43 125.98 855.76 120.64 858.22 114.82C860.68 109 861.91 103.38 861.91 97.98C861.91 92.58 860.47 87.7 857.6 83.35C854.71 79.01 850.05 75.92 843.6 74.09C849.91 72.97 855.66 70.35 860.85 66.2C866.05 62.06 870.33 57.25 873.69 51.78C877.06 46.3 879.33 40.52 880.53 34.42C881.72 28.31 881.41 22.7 879.59 17.58H879.58ZM807.17 100.41C806.75 102.09 805.76 103.6 804.22 104.93C802.68 106.27 800.79 106.93 798.54 106.93H755.17C752.78 106.93 751.18 106.27 750.33 104.93C749.5 103.6 749.29 102.09 749.71 100.41C750.12 98.72 751.14 97.22 752.76 95.88C754.36 94.56 756.29 93.88 758.54 93.88H801.91C804.3 93.88 805.88 94.56 806.64 95.88C807.41 97.22 807.6 98.72 807.17 100.41ZM827.16 46.84C826.75 48.45 825.79 49.93 824.33 51.25C822.85 52.59 820.92 53.25 818.54 53.25H775.17C772.78 53.25 771.2 52.59 770.44 51.25C769.67 49.93 769.5 48.45 769.92 46.84C770.34 45.22 771.32 43.75 772.86 42.42C774.4 41.09 776.29 40.42 778.55 40.42H821.91C824.29 40.42 825.88 41.09 826.64 42.42C827.41 43.75 827.58 45.22 827.16 46.84Z" fill="#FF0000"/>
<path d="M439.74 0L426.48 40.42H376.81L372.8 53.26L342.5 147.35H287.98L322.43 40.42H260.61L273.66 0H439.74Z" fill="white"/>
<path d="M648.25 58.49L595.42 146.75H545.74L549.51 58.28L521 146.75H477.61L524.77 0H601.71L598.78 68.55L639.65 0H716.59L669.42 146.74H619.74L648.25 58.48V58.49Z" fill="white"/>
</svg>
