<svg width="256" height="62" viewBox="0 0 256 62" fill="none" xmlns="http://www.w3.org/2000/svg">
<g clip-path="url(#clip0_2229_2866)">
<path d="M137.141 40.9044H121.877L135.301 0H150.566L137.143 40.9044H137.141Z" fill="white"/>
<path d="M50.9219 40.9044L64.344 0H79.727L69.9868 29.6839H87.1502L83.4683 40.9044H50.9219Z" fill="white"/>
<path d="M23.1103 25.6525C22.7131 26.7822 22.7724 27.6985 23.2883 28.3993C23.8019 29.1 24.6739 29.4503 25.902 29.4503L30.9513 29.5087C32.1383 29.5087 33.218 29.1584 34.1881 28.4577C35.1582 27.7569 35.8408 26.8429 36.2357 25.7109L44.7295 0H59.9938L50.6097 28.6328C50.0162 30.4655 49.1533 32.1387 48.0257 33.6591C46.898 35.1774 45.5809 36.4732 44.0767 37.5445C42.5724 38.6158 40.9174 39.4445 39.1164 40.0285C37.3131 40.6124 35.423 40.9044 33.444 40.9044H18.8942C16.4791 40.9044 14.4087 40.545 12.6876 39.8241C10.9642 39.1032 9.60826 38.0813 8.61757 36.7562C7.62689 35.4334 7.05394 33.8433 6.89644 31.9927C6.73665 30.1443 7.0334 28.0871 7.78668 25.8277L16.2805 0H31.5448L23.1103 25.6525Z" fill="white"/>
<path d="M255.037 4.88251C254.519 3.46087 253.558 2.293 252.156 1.37668C250.748 0.460359 248.759 0.00219727 246.185 0.00219727H221.717C221.511 0.00219727 221.306 0.00668904 221.103 0.0224103C219.546 0.107754 218.069 0.529981 216.667 1.2846C215.085 2.14253 213.7 3.24526 212.511 4.5883C211.324 5.93359 210.383 7.4024 209.691 9.00147C208.998 10.5983 208.651 12.1457 208.651 13.646C208.651 15.1462 209.057 16.496 209.87 17.7065C210.682 18.9103 211.997 19.7683 213.821 20.2781C212.036 20.5925 210.413 21.3224 208.947 22.4678C207.48 23.6177 206.274 24.963 205.325 26.4992C204.373 28.0399 203.731 29.6592 203.396 31.3481C203.06 33.0437 203.147 34.5934 203.663 35.9926C204.177 37.3962 205.147 38.5663 206.571 39.5051C207.518 40.125 208.71 40.5382 210.146 40.7426C210.872 40.8504 211.659 40.9043 212.511 40.9043H236.979C238.761 40.9043 240.446 40.4776 242.03 39.6197C243.612 38.764 244.998 37.6635 246.187 36.3182C247.374 34.9752 248.314 33.4929 249.006 31.8758C249.7 30.2611 250.047 28.7002 250.047 27.1999C250.047 25.6997 249.641 24.3499 248.83 23.1393C248.015 21.9355 246.7 21.0776 244.879 20.5678C246.659 20.2579 248.285 19.5257 249.748 18.3781C251.216 17.2282 252.421 15.8941 253.37 14.3759C254.318 12.8554 254.961 11.2496 255.299 9.55621C255.635 7.86056 255.548 6.30191 255.035 4.88027L255.037 4.88251ZM234.605 27.8737C234.486 28.3408 234.207 28.7586 233.769 29.1314C233.335 29.5042 232.801 29.6861 232.169 29.6861H219.932C219.258 29.6861 218.806 29.5019 218.567 29.1314C218.329 28.7586 218.27 28.3408 218.388 27.8737C218.505 27.4065 218.795 26.991 219.251 26.616C219.703 26.2499 220.247 26.0612 220.881 26.0612H233.116C233.79 26.0612 234.237 26.2499 234.454 26.616C234.669 26.991 234.721 27.4065 234.605 27.8737ZM240.243 13.0036C240.126 13.4506 239.859 13.8616 239.444 14.2277C239.026 14.6005 238.483 14.7824 237.809 14.7824H225.574C224.901 14.7824 224.454 14.5982 224.237 14.2277C224.022 13.8616 223.972 13.4506 224.091 13.0036C224.209 12.5545 224.485 12.1457 224.919 11.7774C225.357 11.4046 225.889 11.2227 226.524 11.2227H238.759C239.43 11.2227 239.88 11.4068 240.094 11.7774C240.311 12.1457 240.361 12.5545 240.241 13.0036H240.243Z" fill="#FB2400"/>
<path d="M130.93 0L127.188 11.2205H113.173L112.043 14.7847L103.492 40.9066H88.109L97.8309 11.2205H80.3867L84.0687 0H130.93Z" fill="white"/>
<path d="M189.764 16.2378L174.858 40.7382H160.84L161.904 16.1794L153.86 40.7382H141.615L154.923 0H176.631L175.803 19.0294L187.337 0H209.045L195.737 40.7382H181.72L189.764 16.2378Z" fill="white"/>
<path d="M29.5929 45.8452L28.0909 50.7727L26.9541 54.4986L26.1711 57.0679C25.338 59.7989 26.881 61.9954 29.6362 61.9954H39.9311C42.6863 61.9954 45.5762 59.7989 46.4116 57.0679L47.1946 54.4986L48.3313 50.7727L49.8356 45.8452H44.7863L42.1362 54.5009L41.5541 56.4099C41.2939 57.2611 40.3397 57.9461 39.4152 57.9461H32.6151C31.6906 57.9461 31.1542 57.2611 31.4167 56.4099L31.9988 54.5009L34.649 45.8452H29.5951H29.5929Z" fill="white"/>
<path d="M75.9488 45.8452C73.1936 45.8452 70.3083 48.0439 69.4774 50.7727L68.521 53.9192L67.5577 57.0657C66.7222 59.7967 68.2676 61.9932 71.0228 61.9932H82.4088C85.1617 61.9932 88.0493 59.7967 88.8779 57.0657L89.8343 53.9192L90.7976 50.7727C91.6331 48.0417 90.0877 45.8452 87.3325 45.8452H75.9465H75.9488ZM76.4647 49.899H84.3468C84.3719 49.899 84.3993 49.899 84.4221 49.899C85.2941 49.9395 85.7894 50.6087 85.5383 51.433L84.7805 53.9192L84.0204 56.4076C83.767 57.2319 82.8653 57.9011 81.9682 57.9416C81.9408 57.9416 81.9157 57.9438 81.8883 57.9438H74.0063C73.0818 57.9438 72.5454 57.2588 72.8056 56.4076L72.906 56.0775L72.9129 56.073L73.5657 53.9192L74.2277 51.7654L74.2231 51.7609L74.3236 51.4307C74.5838 50.5795 75.5357 49.8946 76.4624 49.8946L76.4647 49.899Z" fill="white"/>
<path d="M14.1299 45.8453L0.5 61.9955H6.20897L6.98052 61.0522H6.97595L8.43002 59.2577H11.7992H18.3163L18.8824 61.9932H24.5663L20.9185 45.843H14.1276L14.1299 45.8453ZM16.3532 49.6004L17.652 55.7272H11.3039L16.3532 49.6004Z" fill="white"/>
<path d="M50.943 45.8452L49.6875 49.9619H56.4282L52.7463 61.9954H57.9873L61.1009 51.8238L61.0918 51.8148L61.6579 49.9619H68.4077L69.6632 45.8452H50.9407H50.943Z" fill="white"/>
<path d="M110.228 45.8475C108.557 45.8475 106.836 46.656 105.553 47.9025H105.542C104.711 48.711 104.067 49.7015 103.74 50.775L102.782 53.9215L101.818 57.068C101.793 57.1488 101.773 57.2252 101.752 57.306C101.743 57.333 101.741 57.3577 101.734 57.3846C101.72 57.4385 101.707 57.4902 101.698 57.5419C101.691 57.5755 101.684 57.6115 101.677 57.6452C101.67 57.6833 101.661 57.7215 101.656 57.7575C101.65 57.8024 101.643 57.845 101.636 57.89C101.634 57.9169 101.629 57.9416 101.627 57.9686C101.62 58.0202 101.615 58.0719 101.611 58.1235C101.611 58.1393 101.611 58.155 101.608 58.1707C101.604 58.2269 101.599 58.2807 101.597 58.3346C101.597 58.3526 101.597 58.3706 101.597 58.3908C101.595 58.5076 101.595 58.6221 101.602 58.7367C101.704 60.6434 103.122 61.9977 105.286 61.9977H115.793C115.811 61.9977 115.83 61.9955 115.848 61.9955L120.792 61.9977L122.196 57.3914C122.232 57.2858 122.269 57.178 122.299 57.0702L123.871 51.8979H112.586L112.858 55.945H117.692L117.551 56.4099L117.083 57.9461H108.406C108.361 57.9461 108.315 57.9439 108.272 57.9394C108.267 57.9394 108.267 57.9394 108.267 57.9394C107.448 57.8585 106.993 57.2072 107.238 56.4099L107.338 56.0798H107.345L107.998 53.9215L108.657 51.7677L108.653 51.7632L108.753 51.433C109.013 50.5818 109.965 49.8968 110.89 49.8968H116.291V49.8924H122.913L125.688 45.843H110.226L110.228 45.8475Z" fill="white"/>
<path d="M205.603 45.8452L188.578 45.8497L183.639 61.9999H200.759L201.998 57.9461H190.117L190.726 55.945H201.848L203.085 51.8979H191.961L192.571 49.8968H204.361L205.6 45.8452H205.603Z" fill="white"/>
<path d="M135.778 45.8453L122.148 61.9955H127.857L128.629 61.0522H128.624L130.078 59.2577H133.448H139.965L140.531 61.9932H146.215L142.567 45.843H135.776L135.778 45.8453ZM138.002 49.6004L139.3 55.7272H132.952L138.002 49.6004Z" fill="white"/>
<path d="M152.371 45.8474L147.429 61.9976H163.197L164.457 57.8809H153.932L157.614 45.8474H152.371Z" fill="white"/>
<path d="M170.463 45.8474L165.521 61.9976H181.29L182.55 57.8809H172.025L175.707 45.8474H170.463Z" fill="white"/>
<path d="M225.982 45.8452L232.073 56.6704L230.447 61.9954H235.615L237.25 56.6704L249.546 45.8452H243.025L235.928 52.3111L232.566 45.8452H225.985H225.982Z" fill="white"/>
<path d="M207.625 45.8452L206.112 50.7727L205.561 52.5739L205.397 53.1107L204.192 57.0679L203.895 58.0381L202.688 61.9954H207.659L208.867 58.0381H212.462L215.952 61.9774H222.871L219.086 57.9663C221.558 57.571 223.953 55.5542 224.702 53.1107L224.852 52.6166L224.866 52.5739L225.416 50.7727C226.249 48.0417 224.706 45.8452 221.951 45.8452H207.627H207.625ZM211.359 49.8856L219.07 49.899C219.995 49.899 220.531 50.584 220.269 51.4352L219.919 52.5761H219.908C219.598 53.3689 218.691 53.9888 217.813 53.9888H211.695L210.104 54L210.321 53.2903L210.54 52.5784L210.793 51.7497L211.359 49.8833V49.8856Z" fill="white"/>
</g>
<defs>
<clipPath id="clip0_2229_2866">
<rect width="255" height="62" fill="white" transform="translate(0.5)"/>
</clipPath>
</defs>
</svg>
