<svg width="112" height="45" viewBox="0 0 112 45" fill="none" xmlns="http://www.w3.org/2000/svg">
<path d="M25.0592 43.8138C22.0115 43.8138 20.4883 42.9587 20.4883 41.2458V34.3792C20.4883 33.9687 20.7299 33.7621 21.2159 33.7621C21.7019 33.7621 21.9585 33.9674 21.9585 34.3792V41.2458C21.9585 42.1652 22.9726 42.6249 25.0008 42.6249H30.7664C31.1357 42.6249 31.319 42.8356 31.319 43.2556C31.319 43.6277 31.1343 43.8124 30.7664 43.8124H25.0592V43.8138Z" fill="white"/>
<path d="M34.1305 43.257C34.1305 43.6674 33.8834 43.874 33.3879 43.874C32.8924 43.874 32.6453 43.6688 32.6453 43.257V34.3805C32.6453 33.9701 32.9019 33.7635 33.4164 33.7635C33.8916 33.7635 34.1305 33.9687 34.1305 34.3805V43.257Z" fill="white"/>
<path d="M52.3572 43.257C52.3572 43.677 52.0993 43.8877 51.5861 43.8877C51.13 43.8877 50.9019 43.677 50.9019 43.257V35.9799L45.3549 43.3596C45.0834 43.7208 44.7535 43.8972 44.3652 43.8877C43.9186 43.8877 43.5737 43.7112 43.3321 43.3596L37.6982 35.9936V43.2556C37.6982 43.6756 37.4606 43.8863 36.9841 43.8863C36.5076 43.8863 36.2564 43.6756 36.2564 43.2556V34.6145C36.2564 34.0467 36.5334 33.7635 37.0859 33.7635C37.4742 33.7635 37.8 33.9345 38.062 34.2766L44.3801 42.4197L50.5829 34.204C50.6901 34.0672 50.8245 33.9605 50.9901 33.8812C51.1544 33.8032 51.32 33.7635 51.4857 33.7635C52.068 33.7635 52.3586 34.0563 52.3586 34.6432V43.2556L52.3572 43.257Z" fill="white"/>
<path d="M55.9819 43.257C55.9819 43.6674 55.7348 43.874 55.2393 43.874C54.7438 43.874 54.4967 43.6688 54.4967 43.257V34.3805C54.4967 33.9701 54.7533 33.7635 55.2678 33.7635C55.743 33.7635 55.9819 33.9687 55.9819 34.3805V43.257Z" fill="white"/>
<path d="M63.3046 35.0112V43.257C63.3046 43.677 63.0576 43.8877 62.5621 43.8877C62.0665 43.8877 61.8344 43.677 61.8344 43.257V35.0112H57.7576C57.3884 35.0112 57.2037 34.806 57.2037 34.3956C57.2037 34.0344 57.3884 33.8524 57.7576 33.8524H67.3665C67.7249 33.8524 67.9054 34.033 67.9054 34.3956C67.9054 34.806 67.7262 35.0112 67.3665 35.0112H63.3046Z" fill="white"/>
<path d="M84.9552 36.2699V41.3758C84.9552 43.0093 83.6315 43.8124 80.9815 43.8124H79.2982C79.2764 43.8138 79.2534 43.8138 79.2303 43.8138H73.5244C70.4767 43.8138 68.9521 42.9573 68.9521 41.2458V34.3792C68.9521 33.9687 69.1951 33.7621 69.6811 33.7621C70.1672 33.7621 70.4237 33.9687 70.4237 34.3792V41.2458C70.4237 42.1652 71.4378 42.6249 73.466 42.6249H74.8033C74.825 42.6235 74.8453 42.6235 74.8671 42.6235H80.1222C82.1599 42.6235 83.4713 42.2363 83.4713 41.3758V39.4098H74.7639C74.4245 39.4098 74.2548 39.21 74.2548 38.8078C74.2548 38.4056 74.4231 38.2058 74.7639 38.2058H83.4713V36.3287C83.4713 35.4778 82.6704 35.0509 81.0698 35.0509H74.7652C74.3973 35.0509 74.2127 34.8607 74.2127 34.4804C74.2127 34.0686 74.3987 33.8634 74.7652 33.8634H81.1132C83.6763 33.8634 84.9579 34.6651 84.9579 36.2685L84.9552 36.2699Z" fill="white"/>
<path d="M97.4149 41.6179C97.4149 43.1544 96.1768 43.9219 93.702 43.9219H87.1218C86.7621 43.9219 86.5829 43.7112 86.5829 43.2912C86.5829 42.919 86.7621 42.7343 87.1218 42.7343H93.892C95.251 42.7343 95.9297 42.3376 95.9297 41.5454V40.6945C95.9297 39.8243 95.1233 39.3893 93.5133 39.3893H90.5144C87.9418 39.3893 86.6562 38.6901 86.6562 37.2905V36.2932C86.6562 34.7376 87.7816 33.9605 90.0338 33.9605L96.5216 33.9441C96.8895 33.9441 97.0755 34.1397 97.0755 34.531C97.0755 34.9223 96.8909 35.1029 96.5216 35.1029L89.8003 35.1193C88.6844 35.1193 88.1264 35.5448 88.1264 36.3958V37.1592C88.1264 37.8734 88.8446 38.2304 90.2809 38.2304H93.3246C94.693 38.2304 95.7166 38.4206 96.3967 38.8023C97.0769 39.184 97.4163 39.771 97.4163 40.5631V41.6193L97.4149 41.6179Z" fill="white"/>
<path d="M110.518 41.6179C110.518 43.1544 109.28 43.9219 106.805 43.9219H100.225C99.8653 43.9219 99.6861 43.7112 99.6861 43.2912C99.6861 42.919 99.8653 42.7343 100.225 42.7343H106.995C108.354 42.7343 109.033 42.3376 109.033 41.5454V40.6945C109.033 39.8243 108.227 39.3893 106.617 39.3893H103.618C101.045 39.3893 99.7594 38.6901 99.7594 37.2905V36.2932C99.7594 34.7376 100.885 33.9605 103.137 33.9605L109.625 33.9441C109.993 33.9441 110.179 34.1397 110.179 34.531C110.179 34.9223 109.994 35.1029 109.625 35.1029L102.904 35.1193C101.788 35.1193 101.23 35.5448 101.23 36.3958V37.1592C101.23 37.8734 101.948 38.2304 103.384 38.2304H106.428C107.796 38.2304 108.82 38.4206 109.5 38.8023C110.18 39.184 110.52 39.771 110.52 40.5631V41.6193L110.518 41.6179Z" fill="white"/>
<path d="M74.7938 12.7326C74.7938 12.7326 74.791 12.7326 74.791 12.7353C74.7978 12.7381 74.8019 12.7422 74.8087 12.7435C74.8046 12.7394 74.7978 12.7353 74.7938 12.7326ZM74.7938 12.7326C74.7938 12.7326 74.791 12.7326 74.791 12.7353C74.7978 12.7381 74.8019 12.7422 74.8087 12.7435C74.8046 12.7394 74.7978 12.7353 74.7938 12.7326Z" fill="white"/>
<path d="M85.1534 11.7544C85.0977 11.214 85.0122 10.6681 84.8316 10.1413C84.6538 9.62282 84.3809 9.09198 83.9125 8.7349C83.6831 8.55705 83.4129 8.43391 83.1333 8.37372C82.8536 8.31078 82.5685 8.30394 82.2916 8.32994C81.7377 8.38466 81.2164 8.56115 80.7209 8.77184C80.2227 8.9798 79.7462 9.23017 79.2832 9.50242C77.961 10.2877 76.7296 11.2003 75.5255 12.1498C74.3322 11.3987 73.1538 10.6161 71.9714 9.83899C70.1916 8.6665 68.4064 7.49264 66.5642 6.38445C65.736 5.89329 64.8971 5.40898 64.0404 4.95476C55.6561 -0.26877 47.9668 -2.06923 45.8585 9.86498C45.8585 9.86498 45.6848 10.6995 45.9332 10.114C47.3369 7.95096 48.7664 6.42002 50.2285 5.39666C49.8593 6.03421 49.5864 6.71417 49.3706 7.38729C49.0271 8.47906 48.8465 9.58725 48.7244 10.6859C48.613 11.7872 48.5696 12.8831 48.5737 13.9762C48.5777 15.0625 48.6144 16.1502 48.6999 17.2378C48.7895 18.3255 48.9171 19.4159 49.1479 20.4995C49.3773 21.5789 49.6937 22.6597 50.2122 23.6817C50.4743 24.1907 50.7933 24.6805 51.1938 25.1183C51.3865 25.3385 51.6146 25.5356 51.8468 25.7216C52.0898 25.8967 52.3423 26.0609 52.6151 26.1868C53.1555 26.4467 53.7487 26.574 54.3257 26.6041C54.9054 26.6301 55.4755 26.5671 56.0213 26.4467C57.1141 26.1977 58.1228 25.7586 59.0799 25.2551C60.9968 24.2427 62.729 22.9662 64.4206 21.6596C67.786 19.0191 70.9505 16.1529 74.2466 13.4536C74.5059 13.2388 74.768 13.0281 75.0327 12.8201C75.6762 13.195 76.3264 13.5617 76.9835 13.9188C77.9284 14.4291 78.8895 14.9134 79.8982 15.3184C80.4032 15.5167 80.9205 15.6946 81.458 15.8205C81.9943 15.9436 82.5618 16.0243 83.1428 15.9395C83.432 15.8957 83.7238 15.8054 83.9858 15.6481C84.2492 15.4921 84.4732 15.2718 84.6388 15.0256C84.9742 14.5262 85.1031 13.9543 85.1669 13.4057C85.1954 13.1293 85.2104 12.8557 85.2077 12.5766C85.2049 12.3016 85.1791 12.0266 85.1534 11.7571V11.7544ZM74.8073 12.7435C74.8073 12.7435 74.7965 12.7367 74.7897 12.7353C74.5616 12.9173 74.3349 13.1006 74.1068 13.2826C70.7971 15.9751 67.6013 18.8112 64.1626 21.319C63.306 21.9469 62.4331 22.5517 61.5371 23.114C60.6425 23.679 59.7274 24.2057 58.7812 24.6545C57.8364 25.0978 56.8562 25.4699 55.8624 25.6477C55.3669 25.7367 54.866 25.764 54.3854 25.7216C53.9048 25.6737 53.4433 25.5506 53.0333 25.3303C52.2024 24.898 51.6065 24.0949 51.1856 23.1974C50.7689 22.2931 50.5123 21.2902 50.3371 20.271C49.9937 18.2229 49.938 16.105 49.991 13.994C50.0493 11.9008 50.2503 9.7911 50.8815 7.8894C51.1911 6.93991 51.6377 6.06157 52.2296 5.36519C52.8215 4.66197 53.6035 4.19955 54.4913 3.97928C55.3819 3.75901 56.3675 3.78227 57.3503 3.94644C58.3332 4.10925 59.3188 4.40477 60.284 4.76185C61.2289 5.10799 62.1575 5.51432 63.0739 5.95623C64.0459 6.42413 65.003 6.9317 65.9546 7.45707C67.805 8.47769 69.6255 9.5763 71.4446 10.6804C72.4614 11.2947 73.481 11.9131 74.51 12.5164C74.6145 12.5807 74.7232 12.6423 74.8277 12.7052C74.8155 12.7134 74.8019 12.7244 74.7897 12.7353C74.7937 12.7381 74.8005 12.7422 74.8046 12.7463L74.8073 12.7435ZM84.7325 13.3496C84.6592 13.8558 84.518 14.3579 84.2411 14.741C83.9668 15.1282 83.546 15.3526 83.0695 15.4032C82.5957 15.4552 82.088 15.3744 81.5965 15.2458C81.1051 15.1118 80.6177 14.9284 80.1385 14.7205C79.1828 14.3032 78.2556 13.797 77.3433 13.2648C76.8002 12.9446 76.2599 12.6163 75.725 12.2784C76.0685 12.0129 76.4147 11.7503 76.7622 11.4931C77.6202 10.8637 78.4945 10.2576 79.4108 9.72817C79.8683 9.46412 80.3381 9.22196 80.8227 9.02358C81.306 8.82657 81.8097 8.67334 82.316 8.63229C82.8211 8.58851 83.3315 8.69112 83.7116 9.00032C84.0958 9.30268 84.3347 9.77195 84.4909 10.259C84.6497 10.7474 84.723 11.2714 84.7651 11.7954C84.7868 12.0567 84.8018 12.3194 84.795 12.578C84.7882 12.8352 84.7651 13.0965 84.7312 13.3523L84.7325 13.3496Z" fill="white"/>
<path d="M25.0592 43.8138C22.0115 43.8138 20.4883 42.9587 20.4883 41.2458V34.3792C20.4883 33.9687 20.7299 33.7621 21.2159 33.7621C21.7019 33.7621 21.9585 33.9674 21.9585 34.3792V41.2458C21.9585 42.1652 22.9726 42.6249 25.0008 42.6249H30.7664C31.1357 42.6249 31.319 42.8356 31.319 43.2556C31.319 43.6277 31.1343 43.8124 30.7664 43.8124H25.0592V43.8138Z" stroke="white" stroke-miterlimit="10"/>
<path d="M34.1305 43.257C34.1305 43.6674 33.8834 43.874 33.3879 43.874C32.8924 43.874 32.6453 43.6688 32.6453 43.257V34.3805C32.6453 33.9701 32.9019 33.7635 33.4164 33.7635C33.8916 33.7635 34.1305 33.9687 34.1305 34.3805V43.257Z" stroke="white" stroke-miterlimit="10"/>
<path d="M52.3572 43.257C52.3572 43.677 52.0993 43.8877 51.5861 43.8877C51.13 43.8877 50.9019 43.677 50.9019 43.257V35.9799L45.3549 43.3596C45.0834 43.7208 44.7535 43.8972 44.3652 43.8877C43.9186 43.8877 43.5737 43.7112 43.3321 43.3596L37.6982 35.9936V43.2556C37.6982 43.6756 37.4606 43.8863 36.9841 43.8863C36.5076 43.8863 36.2564 43.6756 36.2564 43.2556V34.6145C36.2564 34.0467 36.5334 33.7635 37.0859 33.7635C37.4742 33.7635 37.8 33.9345 38.062 34.2766L44.3801 42.4197L50.5829 34.204C50.6901 34.0672 50.8245 33.9605 50.9901 33.8812C51.1544 33.8032 51.32 33.7635 51.4857 33.7635C52.068 33.7635 52.3586 34.0563 52.3586 34.6432V43.2556L52.3572 43.257Z" stroke="white" stroke-miterlimit="10"/>
<path d="M55.9819 43.257C55.9819 43.6674 55.7348 43.874 55.2393 43.874C54.7438 43.874 54.4967 43.6688 54.4967 43.257V34.3805C54.4967 33.9701 54.7533 33.7635 55.2678 33.7635C55.743 33.7635 55.9819 33.9687 55.9819 34.3805V43.257Z" stroke="white" stroke-miterlimit="10"/>
<path d="M63.3046 35.0112V43.257C63.3046 43.677 63.0576 43.8877 62.5621 43.8877C62.0665 43.8877 61.8344 43.677 61.8344 43.257V35.0112H57.7576C57.3884 35.0112 57.2037 34.806 57.2037 34.3956C57.2037 34.0344 57.3884 33.8524 57.7576 33.8524H67.3665C67.7249 33.8524 67.9054 34.033 67.9054 34.3956C67.9054 34.806 67.7262 35.0112 67.3665 35.0112H63.3046Z" stroke="white" stroke-miterlimit="10"/>
<path d="M84.9552 36.2699V41.3758C84.9552 43.0093 83.6315 43.8124 80.9815 43.8124H79.2982C79.2764 43.8138 79.2534 43.8138 79.2303 43.8138H73.5244C70.4767 43.8138 68.9521 42.9573 68.9521 41.2458V34.3792C68.9521 33.9687 69.1951 33.7621 69.6811 33.7621C70.1672 33.7621 70.4237 33.9687 70.4237 34.3792V41.2458C70.4237 42.1652 71.4378 42.6249 73.466 42.6249H74.8033C74.825 42.6235 74.8453 42.6235 74.8671 42.6235H80.1222C82.1599 42.6235 83.4713 42.2363 83.4713 41.3758V39.4098H74.7639C74.4245 39.4098 74.2548 39.21 74.2548 38.8078C74.2548 38.4056 74.4231 38.2058 74.7639 38.2058H83.4713V36.3287C83.4713 35.4778 82.6704 35.0509 81.0698 35.0509H74.7652C74.3973 35.0509 74.2127 34.8607 74.2127 34.4804C74.2127 34.0686 74.3987 33.8634 74.7652 33.8634H81.1132C83.6763 33.8634 84.9579 34.6651 84.9579 36.2685L84.9552 36.2699Z" stroke="white" stroke-miterlimit="10"/>
<path d="M97.4149 41.6179C97.4149 43.1544 96.1768 43.9219 93.702 43.9219H87.1218C86.7621 43.9219 86.5829 43.7112 86.5829 43.2912C86.5829 42.919 86.7621 42.7343 87.1218 42.7343H93.892C95.251 42.7343 95.9297 42.3376 95.9297 41.5454V40.6945C95.9297 39.8243 95.1233 39.3893 93.5133 39.3893H90.5144C87.9418 39.3893 86.6562 38.6901 86.6562 37.2905V36.2932C86.6562 34.7376 87.7816 33.9605 90.0338 33.9605L96.5216 33.9441C96.8895 33.9441 97.0755 34.1397 97.0755 34.531C97.0755 34.9223 96.8909 35.1029 96.5216 35.1029L89.8003 35.1193C88.6844 35.1193 88.1264 35.5448 88.1264 36.3958V37.1592C88.1264 37.8734 88.8446 38.2304 90.2809 38.2304H93.3246C94.693 38.2304 95.7166 38.4206 96.3967 38.8023C97.0769 39.184 97.4163 39.771 97.4163 40.5631V41.6193L97.4149 41.6179Z" stroke="white" stroke-miterlimit="10"/>
<path d="M110.518 41.6179C110.518 43.1544 109.28 43.9219 106.805 43.9219H100.225C99.8653 43.9219 99.6861 43.7112 99.6861 43.2912C99.6861 42.919 99.8653 42.7343 100.225 42.7343H106.995C108.354 42.7343 109.033 42.3376 109.033 41.5454V40.6945C109.033 39.8243 108.227 39.3893 106.617 39.3893H103.618C101.045 39.3893 99.7594 38.6901 99.7594 37.2905V36.2932C99.7594 34.7376 100.885 33.9605 103.137 33.9605L109.625 33.9441C109.993 33.9441 110.179 34.1397 110.179 34.531C110.179 34.9223 109.994 35.1029 109.625 35.1029L102.904 35.1193C101.788 35.1193 101.23 35.5448 101.23 36.3958V37.1592C101.23 37.8734 101.948 38.2304 103.384 38.2304H106.428C107.796 38.2304 108.82 38.4206 109.5 38.8023C110.18 39.184 110.52 39.771 110.52 40.5631V41.6193L110.518 41.6179Z" stroke="white" stroke-miterlimit="10"/>
<path d="M74.7938 12.7326C74.7938 12.7326 74.791 12.7326 74.791 12.7353C74.7978 12.7381 74.8019 12.7422 74.8087 12.7435C74.8046 12.7394 74.7978 12.7353 74.7938 12.7326ZM74.7938 12.7326C74.7938 12.7326 74.791 12.7326 74.791 12.7353C74.7978 12.7381 74.8019 12.7422 74.8087 12.7435C74.8046 12.7394 74.7978 12.7353 74.7938 12.7326Z" stroke="white" stroke-miterlimit="10"/>
<path d="M85.1534 11.7544C85.0977 11.214 85.0122 10.6681 84.8316 10.1413C84.6538 9.62282 84.3809 9.09198 83.9125 8.7349C83.6831 8.55705 83.4129 8.43391 83.1333 8.37372C82.8536 8.31078 82.5685 8.30394 82.2916 8.32994C81.7377 8.38466 81.2164 8.56115 80.7209 8.77184C80.2227 8.9798 79.7462 9.23017 79.2832 9.50242C77.961 10.2877 76.7296 11.2003 75.5255 12.1498C74.3322 11.3987 73.1538 10.6161 71.9714 9.83899C70.1916 8.6665 68.4064 7.49264 66.5642 6.38445C65.736 5.89329 64.8971 5.40898 64.0404 4.95476C55.6561 -0.26877 47.9668 -2.06923 45.8585 9.86498C45.8585 9.86498 45.6848 10.6995 45.9332 10.114C47.3369 7.95096 48.7664 6.42002 50.2285 5.39666C49.8593 6.03421 49.5864 6.71417 49.3706 7.38729C49.0271 8.47906 48.8465 9.58725 48.7244 10.6859C48.613 11.7872 48.5696 12.8831 48.5737 13.9762C48.5777 15.0625 48.6144 16.1502 48.6999 17.2378C48.7895 18.3255 48.9171 19.4159 49.1479 20.4995C49.3773 21.5789 49.6937 22.6597 50.2122 23.6817C50.4743 24.1907 50.7933 24.6805 51.1938 25.1183C51.3865 25.3385 51.6146 25.5356 51.8468 25.7216C52.0898 25.8967 52.3423 26.0609 52.6151 26.1868C53.1555 26.4467 53.7487 26.574 54.3257 26.6041C54.9054 26.6301 55.4755 26.5671 56.0213 26.4467C57.1141 26.1977 58.1228 25.7586 59.0799 25.2551C60.9968 24.2427 62.729 22.9662 64.4206 21.6596C67.786 19.0191 70.9505 16.1529 74.2466 13.4536C74.5059 13.2388 74.768 13.0281 75.0327 12.8201C75.6762 13.195 76.3264 13.5617 76.9835 13.9188C77.9284 14.4291 78.8895 14.9134 79.8982 15.3184C80.4032 15.5167 80.9205 15.6946 81.458 15.8205C81.9943 15.9436 82.5618 16.0243 83.1428 15.9395C83.432 15.8957 83.7238 15.8054 83.9858 15.6481C84.2492 15.4921 84.4732 15.2718 84.6388 15.0256C84.9742 14.5262 85.1031 13.9543 85.1669 13.4057C85.1954 13.1293 85.2104 12.8557 85.2077 12.5766C85.2049 12.3016 85.1791 12.0266 85.1534 11.7571V11.7544ZM74.8073 12.7435C74.8073 12.7435 74.7965 12.7367 74.7897 12.7353C74.5616 12.9173 74.3349 13.1006 74.1068 13.2826C70.7971 15.9751 67.6013 18.8112 64.1626 21.319C63.306 21.9469 62.4331 22.5517 61.5371 23.114C60.6425 23.679 59.7274 24.2057 58.7812 24.6545C57.8364 25.0978 56.8562 25.4699 55.8624 25.6477C55.3669 25.7367 54.866 25.764 54.3854 25.7216C53.9048 25.6737 53.4433 25.5506 53.0333 25.3303C52.2024 24.898 51.6065 24.0949 51.1856 23.1974C50.7689 22.2931 50.5123 21.2902 50.3371 20.271C49.9937 18.2229 49.938 16.105 49.991 13.994C50.0493 11.9008 50.2503 9.7911 50.8815 7.8894C51.1911 6.93991 51.6377 6.06157 52.2296 5.36519C52.8215 4.66197 53.6035 4.19955 54.4913 3.97928C55.3819 3.75901 56.3675 3.78227 57.3503 3.94644C58.3332 4.10925 59.3188 4.40477 60.284 4.76185C61.2289 5.10799 62.1575 5.51432 63.0739 5.95623C64.0459 6.42413 65.003 6.9317 65.9546 7.45707C67.805 8.47769 69.6255 9.5763 71.4446 10.6804C72.4614 11.2947 73.481 11.9131 74.51 12.5164C74.6145 12.5807 74.7232 12.6423 74.8277 12.7052C74.8155 12.7134 74.8019 12.7244 74.7897 12.7353C74.7937 12.7381 74.8005 12.7422 74.8046 12.7463L74.8073 12.7435ZM84.7325 13.3496C84.6592 13.8558 84.518 14.3579 84.2411 14.741C83.9668 15.1282 83.546 15.3526 83.0695 15.4032C82.5957 15.4552 82.088 15.3744 81.5965 15.2458C81.1051 15.1118 80.6177 14.9284 80.1385 14.7205C79.1828 14.3032 78.2556 13.797 77.3433 13.2648C76.8002 12.9446 76.2599 12.6163 75.725 12.2784C76.0685 12.0129 76.4147 11.7503 76.7622 11.4931C77.6202 10.8637 78.4945 10.2576 79.4108 9.72817C79.8683 9.46412 80.3381 9.22196 80.8227 9.02358C81.306 8.82657 81.8097 8.67334 82.316 8.63229C82.8211 8.58851 83.3315 8.69112 83.7116 9.00032C84.0958 9.30268 84.3347 9.77195 84.4909 10.259C84.6497 10.7474 84.723 11.2714 84.7651 11.7954C84.7868 12.0567 84.8018 12.3194 84.795 12.578C84.7882 12.8352 84.7651 13.0965 84.7312 13.3523L84.7325 13.3496Z" stroke="white" stroke-miterlimit="10"/>
</svg>
